PathFileType	4	(X/Y/Z)	2014001\dynamic\2014001_C1_01.trc
DataRate	CameraRate	NumFrames	NumMarkers	Units	OrigDataRate	OrigDataStartFrame	OrigNumFrames
100.000000	100.000000	4	52	mm	100.000000	0	387
Frame#	Time	L_IAS			L_IPS			R_IPS			R_IAS			L_FTC			L_FLE			L_FME			L_FAX			L_TTC			L_FAL			L_TAM			L_FCC			L_FM1			L_FM2			L_FM5			R_FTC			R_FLE			R_FME			R_FAX			R_TTC			R_FAL			R_TAM			R_FCC			R_FM1			R_FM2			R_FM5			CV7			TV10			SXS			SJN			L_SIA			L_SRS			L_SAA			L_SAE			L_HLE			L_HME			L_UOA			L_RSP			L_UHE			L_HM2			L_HM5			R_SIA			R_SRS			R_SAA			R_SAE			R_HLE			R_HME			R_UOA			R_RSP			R_UHE			R_HM2			R_HM5			
		X1	Y1	Z1	X2	Y2	Z2	X3	Y3	Z3	X4	Y4	Z4	X5	Y5	Z5	X6	Y6	Z6	X7	Y7	Z7	X8	Y8	Z8	X9	Y9	Z9	X10	Y10	Z10	X11	Y11	Z11	X12	Y12	Z12	X13	Y13	Z13	X14	Y14	Z14	X15	Y15	Z15	X16	Y16	Z16	X17	Y17	Z17	X18	Y18	Z18	X19	Y19	Z19	X20	Y20	Z20	X21	Y21	Z21	X22	Y22	Z22	X23	Y23	Z23	X24	Y24	Z24	X25	Y25	Z25	X26	Y26	Z26	X27	Y27	Z27	X28	Y28	Z28	X29	Y29	Z29	X30	Y30	Z30	X31	Y31	Z31	X32	Y32	Z32	X33	Y33	Z33	X34	Y34	Z34	X35	Y35	Z35	X36	Y36	Z36	X37	Y37	Z37	X38	Y38	Z38	X39	Y39	Z39	X40	Y40	Z40	X41	Y41	Z41	X42	Y42	Z42	X43	Y43	Z43	X44	Y44	Z44	X45	Y45	Z45	X46	Y46	Z46	X47	Y47	Z47	X48	Y48	Z48	X49	Y49	Z49	X50	Y50	Z50	X51	Y51	Z51	X52	Y52	Z52	

1	0	247.1423339843751	875.1899414062505	1060.975341796875	319.9722900390626	904.9392700195317	1240.10107421875	407.7429199218752	902.140991210938	1241.316528320313	488.2126770019534	868.7642211914067	1068.242797851563	184.0144195556641	789.6455688476567	1128.211547851563	198.2466583251954	456.6257934570315	1002.636535644532	309.8363342285157	450.2009887695315	970.5803222656255	191.9398193359376	391.9615173339846	1001.043212890625	230.9055175781251	396.0241394042971	931.122192382813	212.8053131103517	82.68725585937503	903.3568725585942	296.5491333007814	100.7942428588868	874.543823242188	262.9820861816407	27.98274421691896	922.7292480468755	261.5730590820314	102.0925292968751	757.1511230468752	203.5723571777345	110.2458724975587	763.3024902343752	171.0333099365235	75.44818878173831	803.110229492188	538.4432373046877	776.5398559570317	1168.754272460938	482.2737426757815	431.1134033203127	1205.175415039063	365.5603332519532	422.9111328125002	1188.047485351563	481.3309020996096	368.0306091308595	1236.924072265625	431.8971862792971	351.4515075683595	1178.794555664063	413.4978637695315	70.48858642578128	1332.4462890625	333.7340087890626	87.34881591796878	1293.121337890625	356.0673217773439	36.06042098999025	1379.027465820313	343.6404724121095	27.02379608154298	1194.1982421875	407.2658996582034	35.78028869628908	1186.911254882813	453.5696105957034	22.50766944885255	1247.298950195313	371.8283996582032	1373.85498046875	1199.052124023438	370.0770568847657	1143.707397460938	1273.376586914063	356.6655883789064	1140.6669921875	1034.228393554688	359.5953979492189	1303.470703125	1075.8603515625	281.5401000976564	1181.105834960938	1279.4931640625	286.7191467285157	1312.131103515625	1253.666381835938	174.2495574951172	1307.582275390625	1190.193359375	184.0723266601563	1318.42724609375	1150.822387695313	117.9533386230469	1037.930419921875	1223.408325195313	198.1712493896486	1008.923217773438	1239.839721679688	148.9761199951172	1005.524353027344	1253.207763671875	146.9735107421876	803.1030883789067	1134.405395507813	88.26626586914065	800.7925415039067	1190.89892578125	135.2042694091797	722.4925537109377	1105.73193359375	87.43884277343753	722.7219848632815	1196.912963867188	487.8657531738284	1185.838623046875	1266.97900390625	461.591247558594	1307.785888671875	1237.117919921875	558.780944824219	1301.923583984375	1153.761840820313	543.7803955078127	1303.734130859375	1102.659301757813	618.8444824218752	1001.940795898438	1146.607299804688	548.168151855469	987.0722656250005	1185.835327148438	594.103942871094	978.7737426757817	1182.497314453125	565.327819824219	800.6919555664067	1043.809936523438	634.9790649414065	793.0471801757817	1085.277709960938	574.9268798828127	715.0903930664065	1005.2724609375	633.9575805664065	713.0394287109377	1086.359741210938	
2	0.01	246.2353057861329	874.0178833007817	1056.027465820313	318.2728271484376	904.3139648437505	1235.3408203125	406.0472106933596	901.7133789062505	1236.909057617188	487.3133239746096	868.100708007813	1064.192749023438	183.1021575927735	788.4443969726567	1123.290161132813	198.2361450195314	454.5810852050784	1000.264526367188	309.983367919922	447.9599609375002	968.9023437500005	192.0151214599611	389.9186706542971	999.1198120117192	231.3405151367189	393.5104675292971	929.316284179688	213.6733856201173	80.11047363281253	903.4265136718755	297.5021362304689	97.98481750488287	875.1613159179692	263.724578857422	25.5282554626465	923.3129882812505	263.0384521484376	98.44447326660162	757.2188110351565	205.0169219970704	106.7996978759766	763.0861816406252	172.2844238281251	72.31509399414065	803.0897827148442	537.3671875000002	776.2856445312505	1165.314453125	481.7175903320315	430.9846191406252	1203.172241210938	365.0489196777345	422.4177551269534	1185.748291015625	480.800964355469	367.9979248046876	1235.198486328125	431.5405578613284	351.0460815429689	1177.092041015625	413.2910766601565	70.8499450683594	1332.221923828125	333.5271911621095	87.54136657714847	1292.721069335938	355.8181152343751	36.56867599487306	1378.876708984375	343.7812805175782	26.94857215881349	1194.084106445313	407.3706665039065	35.7555274963379	1186.838623046875	453.5102539062502	22.51242828369141	1247.3515625	369.6033020019532	1373.106323242188	1194.534301757813	367.8230895996095	1142.9736328125	1268.634521484375	355.2289123535157	1140.009155273438	1029.469482421875	357.8212280273439	1302.80078125	1071.2353515625	279.3005371093751	1180.215698242188	1274.53076171875	284.3949584960939	1311.264892578125	1248.82666015625	172.1458435058594	1306.7109375	1185.109375	182.0287017822266	1317.607299804688	1145.70166015625	115.8531188964844	1037.048706054688	1218.094848632813	196.0062561035157	1008.005798339844	1234.638427734375	146.7364196777344	1004.498352050782	1247.863525390625	145.2491149902344	802.519409179688	1128.357666015625	86.50580596923831	799.9869995117192	1184.75634765625	133.6005859375001	722.0368652343752	1099.2939453125	85.70091247558597	721.876159667969	1190.44580078125	485.5371704101565	1185.2412109375	1262.756225585938	459.2530212402346	1307.159545898438	1232.830688476563	556.7556762695315	1301.38623046875	1149.802124023438	541.8218383789065	1303.097900390625	1098.783813476563	617.082214355469	1001.416870117188	1142.793212890625	546.338562011719	986.5443725585942	1181.978759765625	592.2549438476565	978.214721679688	1178.7529296875	563.866394042969	800.291870117188	1039.776123046875	633.387878417969	792.5690917968755	1081.547241210938	573.5401611328127	714.702575683594	1001.236450195313	632.3538208007815	712.5620117187502	1082.499267578125	
3	0.02	245.3063507080079	872.8630981445317	1050.907958984375	316.5001220703126	903.6892089843755	1230.44287109375	404.2783508300784	901.2777709960942	1232.400512695313	486.3732910156252	867.4138793945317	1060.079467773438	182.151840209961	787.2660522460942	1118.182006835938	198.1381072998048	452.4913024902346	997.991333007813	310.0889587402345	445.5926513671877	967.4325561523442	191.9937744140626	387.8516845703127	997.3351440429692	231.738494873047	390.9178161621096	927.642211914063	214.4291381835939	77.52537536621097	903.687622070313	298.3407592773439	95.14482116699222	875.9479370117192	264.3574523925782	23.13609313964844	924.1787719726567	264.3680419921876	94.50066375732425	757.4358520507815	206.3242340087892	103.0763626098633	763.0447387695315	173.4157409667969	68.99253082275393	803.3107299804692	536.2273559570315	776.008911132813	1161.774536132813	481.1194458007815	430.8669128417971	1201.086669921875	364.4941406250001	421.9197692871096	1183.366821289063	480.2276306152346	367.9874877929689	1233.393676757813	431.1417541503909	350.6306152343751	1175.336059570313	413.0774536132815	71.25135040283206	1331.974487304688	333.3103332519532	87.74797058105472	1292.297241210938	355.5681762695314	37.11946487426759	1378.720581054688	343.9159240722657	26.87249565124513	1193.962524414063	407.4676513671877	35.72873687744142	1186.761840820313	453.4392089843752	22.5205364227295	1247.399536132813	367.2754516601564	1372.355346679688	1189.914672851563	365.463348388672	1142.198852539063	1263.668701171875	353.7468261718751	1139.357421875	1024.574462890625	355.9808959960939	1302.126220703125	1066.503784179688	276.9630737304689	1179.289306640625	1269.420654296875	281.964813232422	1310.374877929688	1243.85205078125	169.9500579833985	1305.802368164063	1179.872924804688	179.8901519775391	1316.725341796875	1140.337524414063	113.6743927001954	1036.111083984375	1212.616821289063	193.7723541259767	1007.051025390625	1229.288940429688	144.4483489990235	1003.454162597657	1242.387451171875	143.478744506836	801.882202148438	1122.20947265625	84.706657409668	799.1340332031255	1178.518920898438	131.9486389160157	721.5183105468752	1092.767822265625	83.93202972412112	720.989685058594	1183.912963867188	483.0937805175784	1184.629760742188	1258.448974609375	456.8117980957034	1306.53515625	1228.45849609375	554.649108886719	1300.847045898438	1145.780029296875	539.7760009765627	1302.456176757813	1094.929077148438	615.240905761719	1000.886291503907	1138.9169921875	544.415710449219	986.013549804688	1178.052368164063	590.3164062500002	977.6615600585942	1174.95263671875	562.374938964844	799.8591918945317	1035.722412109375	631.755554199219	792.0717773437505	1077.862670898438	572.1563720703127	714.2820434570315	997.1987304687505	630.716979980469	712.0723266601565	1078.662963867188	
4	0.03	244.355438232422	871.7461547851567	1045.627075195313	314.6563720703126	903.0841674804692	1225.416015625	402.4402465820315	900.8516235351567	1227.804077148438	485.3880310058596	866.7207031250005	1055.901000976563	181.1579895019532	786.1401977539067	1112.89111328125	197.9333038330079	450.3914489746096	995.8166503906255	310.1311950683595	443.1438598632815	966.1611328125005	191.8577270507813	385.7976989746096	995.6708984375005	232.0737457275392	388.3030395507815	926.0759887695317	215.0474090576173	75.00361633300784	904.0130004882817	299.0385131835939	92.36041259765628	876.7395629882817	264.8815917968751	20.90680885314942	925.1913452148442	265.4925537109376	90.32674407958987	757.6646118164065	207.4171905517579	99.12705993652349	763.055603027344	174.3789367675782	65.52188873291018	803.6640625000005	535.0211181640627	775.7208862304692	1158.132690429688	480.4838867187502	430.7729187011721	1198.914184570313	363.9016418457032	421.4265441894534	1180.894775390625	479.6174316406252	368.0118103027345	1231.509155273438	430.7081604003909	350.2168579101564	1173.520385742188	412.8670349121096	71.70442962646487	1331.700805664063	333.0994873046876	87.97581481933597	1291.848876953125	355.3301696777345	37.72844314575197	1378.557739257813	344.045867919922	26.80277061462404	1193.835571289063	407.5561218261721	35.69992446899415	1186.682495117188	453.360046386719	22.53125953674317	1247.44091796875	364.8456115722657	1371.619750976563	1185.191040039063	363.0114135742189	1141.408447265625	1258.50341796875	352.2152709960939	1138.7255859375	1019.545043945313	354.0723266601564	1301.459716796875	1061.666259765625	274.5324707031251	1178.34619140625	1264.166259765625	279.4313354492189	1309.478759765625	1238.740844726563	167.6595458984376	1304.865844726563	1174.478637695313	177.6583709716797	1315.78759765625	1134.722900390625	111.4231185913087	1035.127563476563	1206.96533203125	191.4731750488282	1006.066467285157	1223.786376953125	142.1222229003907	1002.408081054688	1236.780395507813	141.6642608642579	801.1951293945317	1115.965698242188	82.86624145507815	798.236694335938	1172.188354492188	130.2515258789063	720.9363403320315	1086.166137695313	82.12773132324222	720.065612792969	1177.319091796875	480.5420837402346	1184.024291992188	1254.059448242188	454.2722473144534	1305.932495117188	1223.997924804688	552.4641113281252	1300.322143554688	1141.68701171875	537.653015136719	1301.831298828125	1091.069946289063	613.3199462890627	1000.364501953125	1134.977172851563	542.3990478515627	985.4928588867192	1174.047241210938	588.287780761719	977.1303710937505	1171.088745117188	560.8533325195315	799.4019165039067	1031.656616210938	630.0819091796877	791.5671997070317	1074.222778320313	570.777526855469	713.8366699218752	993.1658325195317	629.049743652344	711.5831298828127	1074.851684570313	
